<svg xmlns="http://www.w3.org/2000/svg" viewBox="0 0 680 920" width="100%" height="100%" fill="none">
  <!-- Sayeh Brand Official Logo Emblem (سایه) -->
  <defs>
    <style>
      .sayeh-green { fill: #526649; }
      .sayeh-coral { fill: #DE785E; }
    </style>
  </defs>

  <g id="sayeh-logo-complete">
    <!-- 1. Upper Flame Cusp of Seen (س) -->
    <path class="sayeh-green" d="
      M 282 12
      C 280 48, 271 95, 248 145
      C 220 205, 172 268, 122 312
      C 98 333, 76 352, 68 368
      C 62 380, 68 392, 85 392
      C 105 392, 138 376, 172 345
      C 218 302, 258 242, 280 180
      C 292 145, 298 108, 298 72
      C 298 48, 292 28, 282 12
      Z
    " />

    <!-- 2. Main Calligraphic Swell & Sweeping Loop of Seen (س) -->
    <path class="sayeh-green" d="
      M 68 368
      C 85 345, 122 308, 178 268
      C 248 218, 332 178, 412 178
      C 475 178, 528 205, 565 252
      C 602 302, 615 368, 595 442
      C 568 535, 492 612, 388 655
      C 328 680, 268 682, 218 668
      C 265 672, 320 662, 372 638
      C 455 600, 520 532, 545 452
      C 562 398, 552 345, 520 305
      C 488 265, 438 245, 375 252
      C 292 262, 202 312, 132 375
      C 95 410, 68 448, 62 465
      C 52 450, 52 432, 60 410
      C 68 390, 72 378, 68 368
      Z
    " />

    <!-- 3. Lower Left Undulating Tail Leading to QR Matrix -->
    <path class="sayeh-green" d="
      M 218 668
      C 248 672, 285 665, 325 648
      C 375 625, 420 590, 452 548
      C 425 578, 385 608, 338 628
      C 292 648, 248 652, 210 648
      C 188 645, 172 638, 160 628
      C 152 638, 162 650, 182 660
      C 195 665, 208 668, 218 668
      Z
    " />

    <!-- 4. Upper Left Inner Loop of Seen (س) -->
    <path class="sayeh-green" d="
      M 172 345
      C 220 305, 282 268, 355 248
      C 432 228, 508 242, 562 288
      C 612 332, 630 400, 612 475
      C 588 565, 518 642, 420 688
      C 345 722, 268 725, 195 700
      C 255 708, 320 695, 380 668
      C 462 628, 528 558, 555 475
      C 572 422, 562 370, 528 328
      C 490 282, 432 260, 360 268
      C 278 278, 198 325, 132 388
      C 105 412, 85 435, 78 448
      C 82 428, 98 402, 125 375
      C 140 360, 155 352, 172 345
      Z
    " />

    <!-- 5. QR Code Dissolution Grid on Lower Left -->
    <!-- Transition Halftone Matrix (Dots blending into the green wave) -->
    <g class="sayeh-green">
      <!-- Row 1 -->
      <rect x="235" y="540" width="8.5" height="8.5" rx="1" />
      <rect x="248" y="542" width="8.5" height="8.5" rx="1" />
      <rect x="261" y="545" width="8.5" height="8.5" rx="1" />
      <rect x="274" y="549" width="8.5" height="8.5" rx="1" />
      <rect x="287" y="554" width="8.5" height="8.5" rx="1" />
      <rect x="300" y="560" width="8.5" height="8.5" rx="1" />

      <!-- Row 2 -->
      <rect x="235" y="553" width="8.5" height="8.5" rx="1" />
      <rect x="248" y="555" width="8.5" height="8.5" rx="1" />
      <rect x="261" y="558" width="8.5" height="8.5" rx="1" />
      <rect x="274" y="562" width="8.5" height="8.5" rx="1" />
      <rect x="287" y="567" width="8.5" height="8.5" rx="1" />
      <rect x="300" y="573" width="8.5" height="8.5" rx="1" />
      <rect x="313" y="580" width="8" height="8" rx="1" />

      <!-- Row 3 -->
      <rect x="235" y="566" width="8.5" height="8.5" rx="1" />
      <rect x="248" y="568" width="8.5" height="8.5" rx="1" />
      <rect x="261" y="571" width="8.5" height="8.5" rx="1" />
      <rect x="274" y="575" width="8.5" height="8.5" rx="1" />
      <rect x="287" y="580" width="8.5" height="8.5" rx="1" />
      <rect x="300" y="586" width="8.5" height="8.5" rx="1" />
      <rect x="313" y="593" width="8" height="8" rx="1" />
      <rect x="326" y="601" width="8" height="8" rx="1" />

      <!-- Row 4 -->
      <rect x="235" y="579" width="8.5" height="8.5" rx="1" />
      <rect x="248" y="581" width="8.5" height="8.5" rx="1" />
      <rect x="261" y="584" width="8.5" height="8.5" rx="1" />
      <rect x="274" y="588" width="8.5" height="8.5" rx="1" />
      <rect x="287" y="593" width="8.5" height="8.5" rx="1" />
      <rect x="300" y="599" width="8.5" height="8.5" rx="1" />
      <rect x="313" y="606" width="8" height="8" rx="1" />
      <rect x="326" y="614" width="8" height="8" rx="1" />

      <!-- Row 5 -->
      <rect x="235" y="592" width="8.5" height="8.5" rx="1" />
      <rect x="248" y="594" width="8.5" height="8.5" rx="1" />
      <rect x="261" y="597" width="8.5" height="8.5" rx="1" />
      <rect x="274" y="601" width="8.5" height="8.5" rx="1" />
      <rect x="287" y="606" width="8.5" height="8.5" rx="1" />
      <rect x="300" y="612" width="8.5" height="8.5" rx="1" />
      <rect x="313" y="619" width="8" height="8" rx="1" />

      <!-- Row 6 -->
      <rect x="235" y="605" width="8.5" height="8.5" rx="1" />
      <rect x="248" y="607" width="8.5" height="8.5" rx="1" />
      <rect x="261" y="610" width="8.5" height="8.5" rx="1" />
      <rect x="274" y="614" width="8.5" height="8.5" rx="1" />
      <rect x="287" y="619" width="8.5" height="8.5" rx="1" />
      <rect x="300" y="625" width="8.5" height="8.5" rx="1" />
    </g>

    <!-- Top QR Finder Pattern -->
    <rect class="sayeh-green" x="128" y="525" width="42" height="42" rx="4" />
    <rect fill="#ffffff" x="136" y="533" width="26" height="26" rx="2" />
    <rect class="sayeh-green" x="143" y="540" width="12" height="12" rx="1" />

    <!-- Bottom QR Finder Pattern -->
    <rect class="sayeh-green" x="96" y="604" width="40" height="40" rx="4" />
    <rect fill="#ffffff" x="104" y="612" width="24" height="24" rx="2" />
    <rect class="sayeh-green" x="111" y="619" width="10" height="10" rx="1" />

    <!-- QR Data Matrix Modules between finders -->
    <g class="sayeh-green">
      <!-- Column 1 -->
      <rect x="178" y="530" width="9" height="9" rx="1" />
      <rect x="190" y="531" width="9" height="9" rx="1" />
      <rect x="202" y="533" width="9" height="9" rx="1" />
      <rect x="214" y="536" width="9" height="9" rx="1" />

      <rect x="178" y="544" width="9" height="9" rx="1" />
      <rect x="190" y="546" width="9" height="9" rx="1" />
      <rect x="202" y="549" width="9" height="9" rx="1" />
      <rect x="214" y="552" width="9" height="9" rx="1" />

      <rect x="178" y="558" width="9" height="9" rx="1" />
      <rect x="190" y="561" width="9" height="9" rx="1" />
      <rect x="202" y="564" width="9" height="9" rx="1" />
      <rect x="214" y="568" width="9" height="9" rx="1" />

      <rect x="142" y="574" width="9" height="9" rx="1" />
      <rect x="154" y="574" width="9" height="9" rx="1" />
      <rect x="166" y="575" width="9" height="9" rx="1" />
      <rect x="178" y="576" width="9" height="9" rx="1" />
      <rect x="190" y="578" width="9" height="9" rx="1" />
      <rect x="202" y="581" width="9" height="9" rx="1" />
      <rect x="214" y="584" width="9" height="9" rx="1" />

      <rect x="142" y="588" width="9" height="9" rx="1" />
      <rect x="154" y="588" width="9" height="9" rx="1" />
      <rect x="166" y="589" width="9" height="9" rx="1" />
      <rect x="178" y="591" width="9" height="9" rx="1" />
      <rect x="190" y="593" width="9" height="9" rx="1" />
      <rect x="202" y="596" width="9" height="9" rx="1" />
      <rect x="214" y="600" width="9" height="9" rx="1" />

      <rect x="142" y="602" width="9" height="9" rx="1" />
      <rect x="154" y="603" width="9" height="9" rx="1" />
      <rect x="166" y="605" width="9" height="9" rx="1" />
      <rect x="178" y="607" width="9" height="9" rx="1" />
      <rect x="190" y="610" width="9" height="9" rx="1" />
      <rect x="202" y="613" width="9" height="9" rx="1" />
      <rect x="214" y="617" width="9" height="9" rx="1" />

      <rect x="142" y="616" width="9" height="9" rx="1" />
      <rect x="154" y="618" width="9" height="9" rx="1" />
      <rect x="166" y="620" width="9" height="9" rx="1" />
      <rect x="178" y="623" width="9" height="9" rx="1" />
      <rect x="190" y="626" width="9" height="9" rx="1" />
      <rect x="202" y="630" width="9" height="9" rx="1" />

      <rect x="142" y="630" width="9" height="9" rx="1" />
      <rect x="154" y="632" width="9" height="9" rx="1" />
      <rect x="166" y="635" width="9" height="9" rx="1" />
      <rect x="178" y="638" width="9" height="9" rx="1" />
      <rect x="190" y="642" width="9" height="9" rx="1" />

      <!-- Floating Dispersed Pixels to Left Edge -->
      <rect x="108" y="530" width="8.5" height="8.5" rx="1" />
      <rect x="92" y="540" width="8.5" height="8.5" rx="1" />
      <rect x="65" y="550" width="8.5" height="8.5" rx="1" />
      <rect x="78" y="562" width="8.5" height="8.5" rx="1" />
      <rect x="48" y="568" width="8.5" height="8.5" rx="1" />
      <rect x="32" y="575" width="8.5" height="8.5" rx="1" />
      <rect x="60" y="585" width="8" height="8" rx="1" />
      <rect x="44" y="595" width="8" height="8" rx="1" />
      <rect x="70" y="608" width="8" height="8" rx="1" />
      <rect x="55" y="620" width="8" height="8" rx="1" />
      <rect x="68" y="634" width="8" height="8" rx="1" />
      <rect x="80" y="648" width="8" height="8" rx="1" />
      <rect x="95" y="660" width="8" height="8" rx="1" />
      <rect x="78" y="672" width="8" height="8" rx="1" />
    </g>

    <!-- 6. Two Diamond Nuqta Dots in Terracotta / Coral Orange (نقاط) -->
    <!-- Upper Diamond Nuqta -->
    <g transform="translate(180, 715) rotate(45)">
      <rect class="sayeh-coral" x="-34" y="-34" width="68" height="68" rx="4" />
    </g>

    <!-- Lower Diamond Nuqta -->
    <g transform="translate(180, 805) rotate(45)">
      <rect class="sayeh-coral" x="-34" y="-34" width="68" height="68" rx="4" />
    </g>
  </g>
</svg>